<?xml version="1.0" encoding="UTF-8" standalone="no"?>
<svg
   xmlns:dc="http://purl.org/dc/elements/1.1/"
   xmlns:cc="http://creativecommons.org/ns#"
   xmlns:rdf="http://www.w3.org/1999/02/22-rdf-syntax-ns#"
   xmlns:svg="http://www.w3.org/2000/svg"
   xmlns="http://www.w3.org/2000/svg"
   xmlns:sodipodi="http://sodipodi.sourceforge.net/DTD/sodipodi-0.dtd"
   xmlns:inkscape="http://www.inkscape.org/namespaces/inkscape"
   version="1.0"
   width="64"
   height="70"
   viewBox="0 0 47.999998 52.499998"
   preserveAspectRatio="xMidYMid meet"
   id="svg8"
   sodipodi:docname="depth.svg"
   inkscape:version="0.92.5 (2060ec1f9f, 2020-04-08)">
  <metadata
     id="metadata14">
    <rdf:RDF>
      <cc:Work
         rdf:about="">
        <dc:format>image/svg+xml</dc:format>
        <dc:type
           rdf:resource="http://purl.org/dc/dcmitype/StillImage" />
        <dc:title />
      </cc:Work>
    </rdf:RDF>
  </metadata>
  <defs
     id="defs12" />
  <sodipodi:namedview
     pagecolor="#ffffff"
     bordercolor="#666666"
     borderopacity="1"
     objecttolerance="10"
     gridtolerance="10"
     guidetolerance="10"
     inkscape:pageopacity="0"
     inkscape:pageshadow="2"
     inkscape:window-width="1366"
     inkscape:window-height="683"
     id="namedview10"
     showgrid="false"
     units="px"
     inkscape:zoom="5.53125"
     inkscape:cx="22.998916"
     inkscape:cy="41.07506"
     inkscape:window-x="0"
     inkscape:window-y="27"
     inkscape:window-maximized="1"
     inkscape:current-layer="svg8"
     showguides="true"
     inkscape:guide-bbox="true" />
  <g
     id="g882"
     transform="matrix(0.005055,0,0,-0.005055,-1.6103494,51.839163)"
     style="fill:#000000;stroke:none">
    <path
       id="path864"
       d="m 2013,8829 c -61,-23 -132,-89 -163,-148 -75,-148 -27,-328 113,-417 89,-57 -112,-54 3157,-54 3269,0 3068,-3 3157,54 133,84 185,258 120,399 -34,74 -102,140 -173,166 l -55,21 -3052,-1 c -3030,0 -3052,0 -3104,-20 z"
       inkscape:connector-curvature="0" />
    <path
       id="path866"
       d="m 5019,7557 c -20,-8 -52,-23 -70,-35 -19,-11 -194,-182 -390,-379 -400,-402 -394,-394 -394,-533 1,-56 6,-88 23,-125 61,-135 210,-213 350,-185 80,17 107,33 190,113 l 72,70 V 5119 3755 l -392,392 c -216,215 -406,398 -423,406 -161,80 -362,7 -437,-158 -17,-37 -22,-69 -23,-125 0,-145 -42,-95 718,-857 485,-486 695,-690 731,-710 46,-25 60,-28 146,-28 86,0 100,3 146,28 36,20 246,224 731,710 760,762 718,712 718,857 -1,56 -6,88 -23,125 -75,165 -276,238 -437,158 -16,-8 -207,-191 -422,-406 l -393,-392 v 1364 1364 l 73,-70 c 82,-80 109,-96 190,-113 139,-28 288,50 349,185 17,37 22,69 23,125 0,139 7,130 -398,537 -253,254 -375,370 -411,389 -41,23 -66,28 -131,31 -50,2 -93,-2 -116,-10 z"
       inkscape:connector-curvature="0" />
    <path
       id="path868"
       d="m 2067,7140 c -145,-37 -249,-164 -251,-309 -1,-99 25,-164 94,-233 48,-48 68,-60 129,-78 89,-27 155,-22 240,21 112,56 175,161 175,289 0,96 -33,169 -105,234 -74,66 -192,98 -282,76 z"
       inkscape:connector-curvature="0" />
    <path
       id="path870"
       d="m 8029,7137 c -196,-55 -295,-264 -210,-442 56,-119 163,-189 291,-189 127,0 227,61 287,177 24,45 28,64 28,137 0,73 -4,93 -28,142 -67,136 -230,214 -368,175 z"
       inkscape:connector-curvature="0" />
    <path
       id="path872"
       d="m 1610,5424 c -136,-49 -220,-167 -220,-308 0,-96 24,-151 94,-222 78,-77 134,-98 245,-92 124,7 216,70 273,187 32,64 32,195 1,263 -28,61 -101,134 -161,160 -63,28 -172,34 -232,12 z"
       inkscape:connector-curvature="0" />
    <path
       id="path874"
       d="m 8445,5427 c -66,-22 -99,-43 -144,-92 -59,-64 -84,-124 -85,-205 -1,-100 25,-163 98,-236 78,-77 134,-98 245,-92 126,7 215,69 267,183 33,73 39,131 20,203 -27,105 -91,183 -185,225 -56,25 -162,31 -216,14 z"
       inkscape:connector-curvature="0" />
    <path
       id="path876"
       d="m 1163,3709 c -65,-25 -133,-90 -169,-160 -24,-46 -28,-66 -28,-139 -1,-100 23,-159 89,-226 66,-66 125,-89 225,-89 103,0 160,24 232,97 64,66 91,139 86,238 -6,122 -69,219 -176,272 -66,32 -187,36 -259,7 z"
       inkscape:connector-curvature="0" />
    <path
       id="path878"
       d="m 8864,3720 c -18,-6 -53,-25 -80,-42 -206,-139 -184,-437 41,-556 67,-36 195,-38 267,-5 70,32 131,94 163,164 24,55 27,70 23,143 -7,124 -62,213 -170,271 -44,24 -67,29 -133,32 -44,1 -94,-2 -111,-7 z"
       inkscape:connector-curvature="0" />
    <path
       id="path880"
       d="M 773,2015 C 650,1982 566,1891 540,1764 510,1622 599,1462 736,1411 l 55,-21 h 4329 4329 l 55,21 c 137,51 226,211 196,353 -27,130 -110,218 -237,251 -84,22 -8609,21 -8690,0 z"
       inkscape:connector-curvature="0" />
  </g>
</svg>
